<?xml version="1.0" encoding="utf-8"?>
<!-- Generator: Adobe Illustrator 16.0.0, SVG Export Plug-In . SVG Version: 6.00 Build 0)  -->
<!DOCTYPE svg PUBLIC "-//W3C//DTD SVG 1.1//EN" "http://www.w3.org/Graphics/SVG/1.1/DTD/svg11.dtd">
<svg version="1.1" id="Layer_1" xmlns="http://www.w3.org/2000/svg" xmlns:xlink="http://www.w3.org/1999/xlink" x="0px" y="0px"
	 width="400px" height="400px" viewBox="0 0 400 400" style="enable-background:new 0 0 400 400;" xml:space="preserve">
<path style="fill:#1472a4;" d="M285.4,244.1c-0.7-2.3-0.2-4.9,1.3-6.7c14.9-18.9,22.2-42.8,20.7-66.8c-3.2-51.7-45.9-91.6-97.7-92.6
	h-0.3c-19.5,0-38.6,5.9-54.7,16.8c-26.9,18.1-43.1,48.3-43.5,80.7l-17.2,38.6c-1,2.2-1.6,4.6-1.7,7c-0.2,8,4.7,15.2,12.3,17.7
	l6.4,2.1v34c1,14.4,11.9,26,26.3,26h26.2l4.1,13c1.4,4.9,6.2,8,11.2,7.4l111.7-13.2c1.1,0,2.2-0.1,3.3-0.4c5.5-1.6,8.7-7.3,7.1-12.9
	L285.4,244.1z M258.1,238.3c-8.2,0-14.9-6.6-15-14.9c0-23.9-19.4-43.4-43.3-43.4h-46.7c-2.5,0-4.9-0.4-7.3-1.2
	c-10.9-4-16.5-16.1-12.5-27c8.8-24.3,29-42.7,54-49.4c6.9-1.9,14-2.8,21.2-2.8c44.6-0.1,80.7,36,80.8,80.5c0,19.5-7.1,38.4-20,53.1
	C266.4,236.4,262.4,238.2,258.1,238.3z"/>
</svg>
